<svg width="476" height="424" viewBox="0 0 476 424" fill="none" xmlns="http://www.w3.org/2000/svg">
<path d="M407 106C356.84 104.314 332.21 104.15 298.5 108C313.154 110.159 321.669 110.441 337 110.5C369.682 113.283 381.26 118.462 379 140C391.347 144.641 394.613 148.669 397.5 157C388.43 147.399 383.435 143.829 375 147C379.424 148.404 380.115 154.932 379.5 172.5C375.824 178.228 373.341 180.193 368.5 182.5C373.133 184.625 375.601 186.276 379.5 191C380.042 204.287 379.395 210.42 374 215.5C380.853 212.764 388.112 206.785 410 184.5C406.459 181.593 404.761 179.815 402 176.5L401.5 151.5C396.396 144.701 393.854 140.568 390 132.5C395.698 137.032 398.357 139.972 402 146V124L400 119.5C434.808 130.178 445.99 144.392 449.5 186C446.39 225.867 437.121 239.651 407.5 249.5C403.728 252.994 401.163 254.299 396.5 256.5C398.247 253.882 399.135 252.351 402 250.5L401.5 197C392.863 205.461 387.92 209.764 379 217V250.5C372.7 266.335 368.96 274.981 362.5 291C361.923 295.912 361.828 298.966 362.5 305.5C373.293 279.467 383.337 270.227 410 265.5C452.905 253.509 468.073 237.713 476 190L454.5 204.5C461.89 195.097 466.414 190.208 476 183C468.802 138.725 456.719 119.691 407 106Z" fill="#E2DFFF"/>
<path d="M232 236C236.934 230.953 238.27 227.251 238.5 221C239.294 227.231 241.231 231.015 245 236C241.809 237.886 239.692 239.362 238.5 242.5C236.378 238.975 234.958 237.52 232 236Z" fill="#E2DFFF"/>
<path d="M266.5 179.5C272.145 178.463 274.639 177.455 276.5 174C278.766 176.877 280.349 178.549 284 179.5C280.316 180.795 278.756 181.581 277 185C274.444 181.921 272.298 180.624 266.5 179.5Z" fill="#E2DFFF"/>
<path d="M277 100.5C272.209 104.904 270.366 107.97 268.5 114.5C271.075 114.305 274.209 111.762 281 105.5C293.805 97.4516 301.852 93.7798 317 88C321.308 86.0977 322.847 84.1288 324.5 79.5C323.688 73.8092 323.565 70.1792 323.5 63.5C321.487 67.6321 320.529 70.2584 320.5 78C318.813 81.3424 317.724 82.6814 315.5 84C317.865 79.0911 319.083 76.5259 318 67C315.66 63.9376 313.898 62.7299 309.5 62C300.941 64.0953 296.066 65.8613 285.5 83.5C289.839 83.3589 292.388 82.0455 297 79C297.478 75.8244 299.97 73.6527 306 69.5C310.611 69.6354 311.628 71.2503 311 76.5C294.515 91.4009 285.8 98.8444 277 100.5Z" fill="#E2DFFF"/>
<path d="M282 75.5C281.837 80.3669 282.389 81.599 283.5 83.5C284.586 81.1046 285.749 79.8519 287 77.5C287.139 72.8152 288.319 69.4978 291.5 63.5C287.406 66.5582 285.119 68.311 282 75.5Z" fill="#E2DFFF"/>
<path d="M255.5 327.5H283C279.865 325.503 278.22 323.667 275.5 319V290.5C276.792 288.074 277.866 286.965 280.5 285.5C277.372 284.207 276.327 283.079 275.5 280.5V255.5C286.588 256.025 291.233 259.777 297 272C296.061 262.746 295.652 256.17 295 243.5C289.763 246.526 271.535 245.746 243 245C243.442 255.17 243.26 260.961 239.5 272C245.72 261.63 249.828 256.767 262 255.5V280.5C260.828 282.994 259.837 284.154 257.5 285.5C260.101 287.164 261.116 288.241 262 290.5V319C261.513 322.833 259.935 324.652 255.5 327.5Z" fill="#E2DFFF"/>
<path d="M302 245H327C324.045 247.175 322.801 248.38 321.5 250.5V278.5C330.272 279.51 335.301 279.54 344.5 278.5V250.5C342.964 248.204 341.424 246.984 337.5 245H364.5C360.185 247.575 358.572 248.8 357.5 250.5V320.5C358.509 323.912 359.631 325.417 362.5 327.5H338.5C341.8 324.858 343.33 323.339 345 320.5V289.5C335.423 288.436 330.21 288.258 321.5 289.5V320.5C323.338 323.363 324.561 324.92 327.5 327.5H301.5C305.116 325.383 306.805 323.96 308.5 320.5L308 289.5C306.056 287.181 304.54 286.423 301.5 285.5C304.459 283.583 305.983 282.434 308 280L307.5 250.5C306.115 248.043 304.889 246.847 302 245Z" fill="#E2DFFF"/>
<path fill-rule="evenodd" clip-rule="evenodd" d="M175.495 327.5C184.548 315.993 187.894 307.593 192 290.5L202.5 257C203.297 251.273 202.256 248.59 197 245H224C220.059 249.575 219.47 252.218 221 257L230.5 286C232.853 286.523 234.28 286.628 237 286.5C235.462 288.823 234.335 289.891 232 291.5C236.72 310.938 240.151 319.636 249 327.5H220.5C223.953 325.336 225.174 323.629 226.5 320L221 299H201L194 320C196.116 323.673 197.578 325.4 201 327.5H175.495ZM219 290.5H203L211 262.5L219 290.5Z" fill="#E2DFFF"/>
<path d="M122 245C138.055 245.588 147.023 245.767 163 246C177.254 251.366 182.219 256.883 183.5 273C181.545 287.641 176.837 292.612 164 297.5C155.897 298.281 152.257 298.441 146.5 298.5C148.342 295.173 149.035 293.233 149 289.5C162.446 289.488 165.904 284.98 168.5 273C167.17 259.641 163.065 254.713 144.5 254.5L145 289L147.5 289.5C147.485 293.479 146.655 295.518 144.5 299V320C146.174 323.172 147.589 324.802 151 327.5H124C127.262 324.853 128.326 323.73 130.5 320.5V252C128.622 249.012 126.751 247.451 122 245Z" fill="#E2DFFF"/>
<path d="M118.5 127H173C177.836 127.209 180.251 126.533 183.5 122.5C183.535 143.207 189.5 150.5 187 160C184.19 149.236 179.605 146.128 171 141H148.5V171H164C169.697 167.417 172.243 164.719 175.5 158.5V198L175.495 197.987C172.6 190.691 170.975 186.596 164 183H148.5V215.5H175.5C183.715 207.122 187.312 201.841 193 192C187.935 209.666 185.826 219.86 184.5 239C182.356 237.099 181.347 235.325 180 230.5H120C125.491 226.433 127.948 223.451 130 215.5V190C128.376 186.112 126.539 184.211 121 181.5C126.393 179.493 129.354 178.298 130 171V141C128.906 134.764 126.617 131.646 118.5 127Z" fill="#E2DFFF"/>
<path d="M191 127H230.5C226.628 129.182 224.81 130.757 222.5 134.5C227.873 144.675 231.319 150.316 240 160C247.421 150.367 251.274 144.838 257 134.5C255.31 130.38 253.713 128.81 250 127H286C279.234 131.835 271.353 142.034 250 174C250.342 177.655 249.726 179.63 247 183L253 182.5C268.596 207.782 277.14 221.108 289 230.5H250C255.492 227.118 257.413 224.722 257.5 219L238.5 191L222.5 219C220.671 223.606 221.779 226.135 228 230.5H191C199.317 225.1 210.031 208.204 228.709 178.747L229.5 177.5C211.988 151.394 201.08 133.95 191 127Z" fill="#E2DFFF"/>
<path d="M200 174C201.861 177.455 204.355 178.463 210 179.5C204.202 180.624 202.056 181.921 199.5 185C197.744 181.581 196.184 180.795 192.5 179.5C196.151 178.549 197.734 176.877 200 174Z" fill="#E2DFFF"/>
<path d="M290.5 127H345C349.836 127.209 352.251 126.533 355.5 122.5C355.535 143.207 359 150.5 356.5 160C353.69 149.236 351.605 146.128 343 141H320.5V171H336C341.697 167.417 344.243 164.719 347.5 158.5V198L347.495 197.987C344.6 190.691 342.975 186.596 336 183H320.5V215.5H347.5C355.715 207.122 355.812 203.841 361.5 194C358.066 215.387 357.157 224.761 356.5 239C354.356 237.099 353.347 235.325 352 230.5H292C297.491 226.433 299.948 223.451 302 215.5V190C300.376 186.112 298.539 184.211 293 181.5C298.393 179.493 301.354 178.298 302 171V141C300.906 134.764 298.617 131.646 290.5 127Z" fill="#E2DFFF"/>
<path d="M241.5 131C241.27 124.749 239.934 121.047 235 116C237.958 114.48 239.378 113.025 241.5 109.5C242.692 112.638 244.809 114.114 248 116C244.231 120.985 242.294 124.769 241.5 131Z" fill="#E2DFFF"/>
<path d="M241.5 105.5C229.163 93.3405 222.894 88.8682 213 85.5C213.373 79.3885 211.63 75.8463 208 69.5C221.498 78.4333 228.789 85.0323 241.5 98.5C254.211 85.0323 261.502 78.4333 275 69.5C271.37 75.8463 269.627 79.3885 270 85.5C260.106 88.8682 253.837 93.3405 241.5 105.5Z" fill="#E2DFFF"/>
<path d="M215.5 114.5C213.634 107.97 211.791 104.904 207 100.5C198.2 98.8444 189.485 91.4009 173 76.5C172.372 71.2503 173.389 69.6354 178 69.5C184.03 73.6527 186.522 75.8244 187 79C191.612 82.0455 194.161 83.3589 198.5 83.5C187.934 65.8613 183.059 64.0953 174.5 62C170.102 62.7299 168.34 63.9376 166 67C164.917 76.5259 166.135 79.0911 168.5 84C166.276 82.6814 165.187 81.3424 163.5 78C163.471 70.2584 162.513 67.6321 160.5 63.5C160.435 70.1792 160.312 73.8092 159.5 79.5C161.153 84.1288 162.692 86.0977 167 88C182.148 93.7798 190.195 97.4516 203 105.5C209.791 111.762 212.925 114.305 215.5 114.5Z" fill="#E2DFFF"/>
<path d="M200.5 83.5C201.611 81.599 202.163 80.3669 202 75.5C198.881 68.311 196.594 66.5582 192.5 63.5C195.681 69.4978 196.861 72.8152 197 77.5C198.251 79.8519 199.414 81.1046 200.5 83.5Z" fill="#E2DFFF"/>
<path fill-rule="evenodd" clip-rule="evenodd" d="M241.5 82C255.601 64.2506 264.214 55.4273 281 42C264.83 25.8132 256.2 16.6082 241.5 0C226.8 16.6082 218.17 25.8132 202 42C218.786 55.4273 227.399 64.2506 241.5 82ZM270 42C263.266 27.7603 257.718 20.3993 241.5 9.5C225.282 20.3993 219.734 27.7603 213 42C222.23 56.2143 228.657 61.921 241.5 69.5C254.596 62.1478 260.961 56.4158 270 42Z" fill="#E2DFFF"/>
<path d="M0 106.5H58C52.0976 111.115 48.9991 113.988 44.5 120.5V171H82V121.5C77.5113 114.273 74.5298 110.686 67 106.5C118.689 104.895 146.682 104.483 188 108C140.732 111.338 120.557 111.402 104 120.5V150C109.358 154.898 110.864 156.914 112.5 160C104.116 154.335 100.091 152.391 93.5 150C96.6748 154.522 100.087 158.092 104 160V175.5C107.205 180.409 109.414 182.335 114 184.5C108.327 186.865 106.079 188.586 104 192.5V252C119.255 274.737 125.23 286.773 126 305.5C112.08 278.402 99.9622 268.725 70.5 261.5C77.6759 255.487 80.3049 251.685 82 244C88.4273 239.459 91.2861 235.936 95.5 228.5C88.8527 232.521 85.8893 234.805 82 239V191.5L85.5 186L82 188.5H45.5L40.5 186L44.5 191.5L43.5 239C44.6863 249.259 46.9286 254.467 57.5 261.5H20C18.3557 259.732 16.3792 259.062 7.5 259.5C15.6115 253.885 20.8767 251.438 22 239V192.5L24.5 188.5C21.3636 185.101 18.9864 183.497 13 181.5C17.4778 179.703 19.967 178.662 22 173V127C17.1492 117.477 12.5304 112.909 0 106.5Z" fill="#E2DFFF"/>
<path fill-rule="evenodd" clip-rule="evenodd" d="M241.5 342C255.601 359.749 264.214 368.573 281 382C264.83 398.187 256.2 407.392 241.5 424C226.8 407.392 218.17 398.187 202 382C218.786 368.573 227.399 359.749 241.5 342ZM270 382C263.266 396.24 257.718 403.601 241.5 414.5C225.282 403.601 219.734 396.24 213 382C222.23 367.786 228.657 362.079 241.5 354.5C254.596 361.852 260.961 367.584 270 382Z" fill="#E2DFFF"/>
<path d="M200.5 83.5C201.611 81.599 202.163 80.3669 202 75.5C198.881 68.311 196.594 66.5582 192.5 63.5C195.681 69.4978 196.861 72.8152 197 77.5C198.251 79.8519 199.414 81.1046 200.5 83.5Z" fill="#E2DFFF"/>
<path d="M231.366 342.632C226.137 346.967 222.885 348.456 216.443 349.383C208.247 345.779 196.851 346.999 174.83 349.983C171.347 353.96 171.274 355.867 175.002 358.583C182.324 358.563 185.607 358.178 187.795 355.828C193.321 355.92 196.166 356.276 199.827 358.61C181.145 367.197 176.124 365.901 167.878 362.795C164.661 359.709 163.889 357.717 163.688 353.868C168.175 345.396 170.629 343.967 175.354 341.252C172.773 341.084 171.119 341.574 167.839 343.379C163.442 349.751 161.168 351.377 157.172 353.649C160.891 348.101 162.84 345.036 165.385 339.882C169.363 336.995 171.746 336.24 176.375 337.104C192.14 340.891 200.854 342.406 215.967 342.998C225.108 341.667 229.13 341.339 231.366 342.632Z" fill="#E2DFFF"/>
<path d="M201.477 359.74C201.32 361.936 201.079 363.264 198.196 367.189C191.561 371.359 188.684 371.514 183.578 371.725C189.591 368.572 192.439 366.501 195.2 362.714C197.56 361.48 199.228 361.103 201.477 359.74Z" fill="#E2DFFF"/>
<path d="M201.477 359.74C201.32 361.936 201.079 363.264 198.196 367.189C191.561 371.359 188.684 371.514 183.578 371.725C189.591 368.572 192.439 366.501 195.2 362.714C197.56 361.48 199.228 361.103 201.477 359.74Z" fill="#E2DFFF"/>
<path d="M250.5 342.632C255.729 346.967 258.981 348.456 265.422 349.383C273.619 345.779 285.015 346.999 307.035 349.983C310.519 353.96 310.591 355.867 306.863 358.583C299.542 358.562 296.259 358.178 294.07 355.828C288.544 355.92 285.699 356.276 282.039 358.61C300.721 367.197 305.741 365.901 313.988 362.795C317.204 359.709 317.977 357.717 318.178 353.868C313.69 345.396 311.237 343.967 306.512 341.252C309.092 341.084 310.747 341.574 314.027 343.379C318.424 349.751 320.698 351.377 324.693 353.649C320.974 348.101 319.025 345.036 316.481 339.882C312.502 336.995 310.12 336.24 305.49 337.104C289.726 340.891 281.012 342.406 265.899 342.998C256.758 341.667 252.735 341.339 250.5 342.632Z" fill="#E2DFFF"/>
<path d="M280.388 359.74C280.545 361.936 280.786 363.264 283.67 367.189C290.304 371.359 293.181 371.514 298.287 371.725C292.275 368.572 289.427 366.501 286.666 362.714C284.305 361.48 282.638 361.103 280.388 359.74Z" fill="#E2DFFF"/>
<path d="M280.388 359.74C280.545 361.936 280.786 363.264 283.67 367.189C290.304 371.359 293.181 371.514 298.287 371.725C292.275 368.572 289.427 366.501 286.666 362.714C284.305 361.48 282.638 361.103 280.388 359.74Z" fill="#E2DFFF"/>
<path d="M223 49C227.868 48.5345 229.819 48.14 233.5 45C237.349 47.952 239.63 49.837 241.5 54C243.37 49.837 245.651 47.952 249.5 45C253.181 48.14 255.132 48.5345 260 49C257.238 51.6623 256.34 53.4954 256 57.5C254.708 53.4034 253.113 51.9236 249 50.5C244.426 54.2228 242.725 57.6335 241.5 66.5C240.275 57.6335 238.574 54.2228 234 50.5C229.887 51.9236 228.292 53.4034 227 57.5C226.66 53.4954 225.762 51.6623 223 49Z" fill="#E2DFFF"/>
<path fill-rule="evenodd" clip-rule="evenodd" d="M241.5 12.5C240.803 17.4753 240.132 20.1699 237.5 24.5C232.935 25.5104 230.429 25.2051 226 24C228.382 26.3661 229.915 27.5823 234 29C232.876 34.0075 231.312 36.1193 228 39.5C233.944 41.7453 236.981 43.6489 241.5 49C246.019 43.6489 249.056 41.7453 255 39.5C251.688 36.1193 250.124 34.0075 249 29C253.085 27.5823 254.618 26.3661 257 24C252.571 25.2051 250.065 25.5104 245.5 24.5C242.868 20.1699 242.197 17.4753 241.5 12.5ZM234 38C236 33.322 237.508 30.94 241.5 27.5C245.492 30.94 247 33.322 249 38C246.834 41.0703 245.288 42.5651 241.5 44.5C237.712 42.5651 236.166 41.0703 234 38Z" fill="#E2DFFF"/>
<path d="M260 375.553C255.132 376.018 253.181 376.413 249.5 379.553C245.651 376.601 243.37 374.716 241.5 370.553C239.63 374.716 237.349 376.601 233.5 379.553C229.819 376.413 227.868 376.018 223 375.553C225.762 372.89 226.66 371.057 227 367.053C228.292 371.149 229.887 372.629 234 374.053C238.574 370.33 240.275 366.919 241.5 358.053C242.725 366.919 244.426 370.33 249 374.053C253.113 372.629 254.708 371.149 256 367.053C256.34 371.057 257.238 372.89 260 375.553Z" fill="#E2DFFF"/>
<path fill-rule="evenodd" clip-rule="evenodd" d="M241.5 412.053C242.197 407.077 242.868 404.383 245.5 400.053C250.065 399.042 252.571 399.348 257 400.553C254.618 398.187 253.085 396.97 249 395.553C250.124 390.545 251.688 388.433 255 385.053C249.056 382.807 246.019 380.904 241.5 375.553C236.981 380.904 233.944 382.807 228 385.053C231.312 388.433 232.876 390.545 234 395.553C229.915 396.97 228.382 398.187 226 400.553C230.429 399.348 232.935 399.042 237.5 400.053C240.132 404.383 240.803 407.077 241.5 412.053ZM249 386.553C247 391.231 245.492 393.613 241.5 397.053C237.508 393.613 236 391.231 234 386.553C236.166 383.482 237.712 381.988 241.5 380.053C245.288 381.988 246.834 383.482 249 386.553Z" fill="#E2DFFF"/>
</svg>
